<svg xmlns="http://www.w3.org/2000/svg" width="2600" height="2000" viewBox="0 0 2600 2000">
  <rect width="2600" height="2000" fill="white"/>
  <text x="1300" y="40" text-anchor="middle" font-size="28" font-family="Times New Roman" font-weight="bold">AgriAdvisory Hub Database Schema</text>
  <g font-family="Times New Roman" font-size="14" fill="black" stroke="black" stroke-width="1.5">
    <rect x="90" y="130" width="180" height="52" fill="white"/><text x="180" y="162" text-anchor="middle">FARMER</text>
    <ellipse cx="50" cy="95" rx="42" ry="20" fill="white"/><text x="50" y="100" text-anchor="middle" font-size="12">farmer_id</text><line x1="18" y1="107" x2="82" y2="107"/>
    <line x1="92" y1="130" x2="68" y2="112"/>
    <ellipse cx="180" cy="82" rx="52" ry="20" fill="white"/><text x="180" y="87" text-anchor="middle" font-size="12">fullname</text><line x1="180" y1="130" x2="180" y2="102"/>
    <ellipse cx="295" cy="95" rx="42" ry="20" fill="white"/><text x="295" y="100" text-anchor="middle" font-size="12">email</text><line x1="270" y1="130" x2="274" y2="112"/>
    <ellipse cx="330" cy="160" rx="42" ry="20" fill="white"/><text x="330" y="165" text-anchor="middle" font-size="12">phone</text><line x1="270" y1="160" x2="288" y2="160"/>
    <ellipse cx="310" cy="225" rx="52" ry="20" fill="white"/><text x="310" y="230" text-anchor="middle" font-size="12">password</text><line x1="245" y1="182" x2="284" y2="210"/>
    <ellipse cx="180" cy="245" rx="52" ry="20" fill="white"/><text x="180" y="250" text-anchor="middle" font-size="12">address</text><line x1="180" y1="182" x2="180" y2="225"/>
    <ellipse cx="70" cy="225" rx="52" ry="20" fill="white"/><text x="70" y="230" text-anchor="middle" font-size="12">land_area</text><line x1="118" y1="182" x2="96" y2="210"/>
    <ellipse cx="20" cy="160" rx="42" ry="20" fill="white"/><text x="20" y="165" text-anchor="middle" font-size="12">service</text><line x1="90" y1="160" x2="62" y2="160"/>
    <ellipse cx="75" cy="280" rx="70" ry="20" fill="white"/><text x="75" y="285" text-anchor="middle" font-size="12">preferred_language</text><line x1="135" y1="182" x2="98" y2="261"/>
    <ellipse cx="265" cy="280" rx="48" ry="20" fill="white"/><text x="265" y="285" text-anchor="middle" font-size="12">created_at</text><line x1="225" y1="182" x2="244" y2="261"/>

    <rect x="870" y="130" width="180" height="52" fill="white"/><text x="960" y="162" text-anchor="middle">PRODUCT</text>
    <ellipse cx="840" cy="92" rx="45" ry="20" fill="white"/><text x="840" y="97" text-anchor="middle" font-size="12">product_id</text><line x1="875" y1="130" x2="860" y2="111"/><line x1="806" y1="104" x2="874" y2="104"/>
    <ellipse cx="960" cy="82" rx="42" ry="20" fill="white"/><text x="960" y="87" text-anchor="middle" font-size="12">name</text><line x1="960" y1="130" x2="960" y2="102"/>
    <ellipse cx="1090" cy="95" rx="42" ry="20" fill="white"/><text x="1090" y="100" text-anchor="middle" font-size="12">price</text><line x1="1048" y1="130" x2="1072" y2="112"/>
    <ellipse cx="1125" cy="160" rx="42" ry="20" fill="white"/><text x="1125" y="165" text-anchor="middle" font-size="12">image</text><line x1="1050" y1="160" x2="1083" y2="160"/>
    <ellipse cx="1085" cy="225" rx="62" ry="20" fill="white"/><text x="1085" y="230" text-anchor="middle" font-size="12">description</text><line x1="1020" y1="182" x2="1056" y2="209"/>
    <ellipse cx="960" cy="245" rx="50" ry="20" fill="white"/><text x="960" y="250" text-anchor="middle" font-size="12">category</text><line x1="960" y1="182" x2="960" y2="225"/>
    <ellipse cx="820" cy="225" rx="65" ry="20" fill="white"/><text x="820" y="230" text-anchor="middle" font-size="12">supplier_name</text><line x1="900" y1="182" x2="850" y2="209"/>
    <ellipse cx="785" cy="160" rx="58" ry="20" fill="white"/><text x="785" y="165" text-anchor="middle" font-size="12">stock_status</text><line x1="870" y1="160" x2="843" y2="160"/>

    <rect x="500" y="370" width="160" height="50" fill="white"/><text x="580" y="401" text-anchor="middle">CART</text>
    <ellipse cx="470" cy="334" rx="40" ry="20" fill="white"/><text x="470" y="339" text-anchor="middle" font-size="12">cart_id</text><line x1="503" y1="370" x2="488" y2="352"/><line x1="440" y1="346" x2="500" y2="346"/>
    <ellipse cx="580" cy="322" rx="46" ry="20" fill="white"/><text x="580" y="327" text-anchor="middle" font-size="12">created_at</text><line x1="580" y1="370" x2="580" y2="342"/>
    <ellipse cx="700" cy="340" rx="48" ry="20" fill="white"/><text x="700" y="345" text-anchor="middle" font-size="12">updated_at</text><line x1="660" y1="370" x2="682" y2="357"/>
    <ellipse cx="700" cy="405" rx="36" ry="20" fill="white"/><text x="700" y="410" text-anchor="middle" font-size="12">status</text><line x1="660" y1="405" x2="664" y2="405"/>

    <rect x="800" y="430" width="170" height="50" fill="white"/><text x="885" y="461" text-anchor="middle">CART_ITEM</text>
    <ellipse cx="785" cy="392" rx="48" ry="20" fill="white"/><text x="785" y="397" text-anchor="middle" font-size="12">cart_item_id</text><line x1="820" y1="430" x2="803" y2="410"/><line x1="748" y1="404" x2="822" y2="404"/>
    <ellipse cx="885" cy="392" rx="42" ry="20" fill="white"/><text x="885" y="397" text-anchor="middle" font-size="12">quantity</text><line x1="885" y1="430" x2="885" y2="412"/>
    <ellipse cx="1010" cy="430" rx="34" ry="20" fill="white"/><text x="1010" y="435" text-anchor="middle" font-size="12">price</text><line x1="970" y1="448" x2="976" y2="446"/>
    <ellipse cx="1015" cy="492" rx="44" ry="20" fill="white"/><text x="1015" y="497" text-anchor="middle" font-size="12">subtotal</text><line x1="970" y1="472" x2="978" y2="477"/>

    <polygon points="380,400 470,450 380,500 290,450" fill="white"/><text x="380" y="455" text-anchor="middle">HAS</text>
    <line x1="270" y1="180" x2="340" y2="418"/>
    <line x1="470" y1="450" x2="500" y2="395"/>
    <text x="300" y="315" font-size="16">1</text>
    <text x="472" y="434" font-size="16">N</text>

    <polygon points="735,435 800,470 735,505 670,470" fill="white"/><text x="735" y="475" text-anchor="middle">CONTAINS</text>
    <line x1="660" y1="395" x2="695" y2="448"/>
    <line x1="800" y1="470" x2="800" y2="470"/>
    <text x="678" y="420" font-size="16">1</text>
    <text x="790" y="460" font-size="16">N</text>

    <polygon points="1015,310 1100,355 1015,400 930,355" fill="white"/><text x="1015" y="360" text-anchor="middle">APPEARS_IN</text>
    <line x1="1010" y1="182" x2="1015" y2="310"/>
    <line x1="955" y1="430" x2="1000" y2="400"/>
    <text x="1025" y="265" font-size="16">1</text>
    <text x="975" y="418" font-size="16">N</text>

    <rect x="360" y="760" width="170" height="50" fill="white"/><text x="445" y="791" text-anchor="middle">ORDER</text>
    <ellipse cx="330" cy="722" rx="44" ry="20" fill="white"/><text x="330" y="727" text-anchor="middle" font-size="12">order_id</text><line x1="370" y1="760" x2="346" y2="740"/><line x1="296" y1="734" x2="364" y2="734"/>
    <ellipse cx="445" cy="710" rx="58" ry="20" fill="white"/><text x="445" y="715" text-anchor="middle" font-size="12">customer_name</text><line x1="445" y1="760" x2="445" y2="730"/>
    <ellipse cx="570" cy="725" rx="42" ry="20" fill="white"/><text x="570" y="730" text-anchor="middle" font-size="12">phone</text><line x1="530" y1="760" x2="551" y2="742"/>
    <ellipse cx="595" cy="790" rx="48" ry="20" fill="white"/><text x="595" y="795" text-anchor="middle" font-size="12">address</text><line x1="530" y1="810" x2="548" y2="805"/>
    <ellipse cx="445" cy="835" rx="52" ry="20" fill="white"/><text x="445" y="840" text-anchor="middle" font-size="12">payment_mode</text><line x1="445" y1="810" x2="445" y2="815"/>
    <ellipse cx="285" cy="790" rx="58" ry="20" fill="white"/><text x="285" y="795" text-anchor="middle" font-size="12">payment_status</text><line x1="360" y1="810" x2="323" y2="804"/>
    <ellipse cx="275" cy="725" rx="36" ry="20" fill="white"/><text x="275" y="730" text-anchor="middle" font-size="12">total</text><line x1="360" y1="775" x2="300" y2="740"/>
    <ellipse cx="330" cy="875" rx="36" ry="20" fill="white"/><text x="330" y="880" text-anchor="middle" font-size="12">status</text><line x1="390" y1="810" x2="352" y2="857"/>
    <ellipse cx="565" cy="875" rx="48" ry="20" fill="white"/><text x="565" y="880" text-anchor="middle" font-size="12">created_at</text><line x1="500" y1="810" x2="536" y2="858"/>

    <rect x="760" y="800" width="185" height="50" fill="white"/><text x="852" y="831" text-anchor="middle">ORDER_ITEM</text>
    <ellipse cx="740" cy="760" rx="52" ry="20" fill="white"/><text x="740" y="765" text-anchor="middle" font-size="12">order_item_id</text><line x1="785" y1="800" x2="760" y2="778"/><line x1="702" y1="772" x2="780" y2="772"/>
    <ellipse cx="852" cy="760" rx="42" ry="20" fill="white"/><text x="852" y="765" text-anchor="middle" font-size="12">quantity</text><line x1="852" y1="800" x2="852" y2="780"/>
    <ellipse cx="980" cy="800" rx="34" ry="20" fill="white"/><text x="980" y="805" text-anchor="middle" font-size="12">price</text><line x1="945" y1="818" x2="948" y2="818"/>
    <ellipse cx="980" cy="862" rx="44" ry="20" fill="white"/><text x="980" y="867" text-anchor="middle" font-size="12">subtotal</text><line x1="945" y1="842" x2="952" y2="847"/>

    <polygon points="640,780 715,825 640,870 565,825" fill="white"/><text x="640" y="830" text-anchor="middle">CONTAINS</text>
    <line x1="530" y1="785" x2="586" y2="812"/>
    <line x1="715" y1="825" x2="760" y2="825"/>
    <text x="560" y="786" font-size="16">1</text>
    <text x="735" y="820" font-size="16">N</text>

    <polygon points="1010,660 1095,705 1010,750 925,705" fill="white"/><text x="1010" y="710" text-anchor="middle">APPEARS_IN</text>
    <line x1="1010" y1="182" x2="1010" y2="660"/>
    <line x1="930" y1="800" x2="980" y2="750"/>
    <text x="1020" y="620" font-size="16">1</text>
    <text x="955" y="788" font-size="16">N</text>

    <polygon points="300,565 390,610 300,655 210,610" fill="white"/><text x="300" y="615" text-anchor="middle">PLACES</text>
    <line x1="175" y1="182" x2="255" y2="575"/>
    <line x1="390" y1="610" x2="420" y2="760"/>
    <text x="205" y="415" font-size="16">1</text>
    <text x="387" y="652" font-size="16">N</text>

    <rect x="180" y="1080" width="180" height="52" fill="white"/><text x="270" y="1112" text-anchor="middle">PAYMENT</text>
    <ellipse cx="130" cy="1040" rx="48" ry="20" fill="white"/><text x="130" y="1045" text-anchor="middle" font-size="12">payment_id</text><line x1="193" y1="1080" x2="160" y2="1057"/><line x1="93" y1="1052" x2="167" y2="1052"/>
    <ellipse cx="270" cy="1028" rx="62" ry="20" fill="white"/><text x="270" y="1033" text-anchor="middle" font-size="12">payment_gateway</text><line x1="270" y1="1080" x2="270" y2="1048"/>
    <ellipse cx="405" cy="1045" rx="54" ry="20" fill="white"/><text x="405" y="1050" text-anchor="middle" font-size="12">transaction_id</text><line x1="360" y1="1080" x2="383" y2="1062"/>
    <ellipse cx="420" cy="1110" rx="42" ry="20" fill="white"/><text x="420" y="1115" text-anchor="middle" font-size="12">amount</text><line x1="360" y1="1120" x2="378" y2="1118"/>
    <ellipse cx="270" cy="1170" rx="58" ry="20" fill="white"/><text x="270" y="1175" text-anchor="middle" font-size="12">payment_status</text><line x1="270" y1="1132" x2="270" y2="1150"/>
    <ellipse cx="125" cy="1170" rx="40" ry="20" fill="white"/><text x="125" y="1175" text-anchor="middle" font-size="12">paid_at</text><line x1="220" y1="1132" x2="147" y2="1154"/>

    <polygon points="315,940 390,985 315,1030 240,985" fill="white"/><text x="315" y="990" text-anchor="middle">HAS</text>
    <line x1="360" y1="810" x2="315" y2="940"/>
    <line x1="315" y1="1030" x2="315" y2="1080"/>
    <text x="350" y="905" font-size="16">1</text>
    <text x="330" y="1060" font-size="16">0..1</text>

    <rect x="1120" y="760" width="195" height="52" fill="white"/><text x="1218" y="792" text-anchor="middle">WEATHER_DATA</text>
    <ellipse cx="1160" cy="720" rx="55" ry="20" fill="white"/><text x="1160" y="725" text-anchor="middle" font-size="12">weather_data_id</text><line x1="1155" y1="760" x2="1160" y2="740"/><line x1="1118" y1="732" x2="1202" y2="732"/>
    <ellipse cx="1290" cy="710" rx="46" ry="20" fill="white"/><text x="1290" y="715" text-anchor="middle" font-size="12">location</text><line x1="1270" y1="760" x2="1280" y2="730"/>
    <ellipse cx="1375" cy="760" rx="50" ry="20" fill="white"/><text x="1375" y="765" text-anchor="middle" font-size="12">temperature</text><line x1="1315" y1="786" x2="1330" y2="779"/>
    <ellipse cx="1385" cy="830" rx="42" ry="20" fill="white"/><text x="1385" y="835" text-anchor="middle" font-size="12">humidity</text><line x1="1315" y1="805" x2="1344" y2="820"/>
    <ellipse cx="1260" cy="880" rx="42" ry="20" fill="white"/><text x="1260" y="885" text-anchor="middle" font-size="12">rainfall</text><line x1="1218" y1="812" x2="1240" y2="861"/>
    <ellipse cx="1130" cy="880" rx="50" ry="20" fill="white"/><text x="1130" y="885" text-anchor="middle" font-size="12">soil_moisture</text><line x1="1158" y1="812" x2="1142" y2="860"/>
    <ellipse cx="1055" cy="820" rx="64" ry="20" fill="white"/><text x="1055" y="825" text-anchor="middle" font-size="12">weather_condition</text><line x1="1120" y1="790" x2="1100" y2="801"/>
    <ellipse cx="1175" cy="945" rx="46" ry="20" fill="white"/><text x="1175" y="950" text-anchor="middle" font-size="12">fetched_at</text><line x1="1188" y1="812" x2="1180" y2="925"/>

    <rect x="1410" y="760" width="195" height="52" fill="white"/><text x="1507" y="792" text-anchor="middle">CROP_ADVISORY</text>
    <ellipse cx="1460" cy="720" rx="48" ry="20" fill="white"/><text x="1460" y="725" text-anchor="middle" font-size="12">advisory_id</text><line x1="1460" y1="760" x2="1460" y2="740"/><line x1="1423" y1="732" x2="1497" y2="732"/>
    <ellipse cx="1585" cy="715" rx="42" ry="20" fill="white"/><text x="1585" y="720" text-anchor="middle" font-size="12">soil_type</text><line x1="1550" y1="760" x2="1568" y2="735"/>
    <ellipse cx="1660" cy="770" rx="36" ry="20" fill="white"/><text x="1660" y="775" text-anchor="middle" font-size="12">season</text><line x1="1605" y1="786" x2="1624" y2="780"/>
    <ellipse cx="1658" cy="845" rx="62" ry="20" fill="white"/><text x="1658" y="850" text-anchor="middle" font-size="12">recommended_crop</text><line x1="1605" y1="805" x2="1618" y2="827"/>
    <ellipse cx="1507" cy="900" rx="68" ry="20" fill="white"/><text x="1507" y="905" text-anchor="middle" font-size="12">recommendation_score</text><line x1="1507" y1="812" x2="1507" y2="880"/>
    <ellipse cx="1375" cy="850" rx="50" ry="20" fill="white"/><text x="1375" y="855" text-anchor="middle" font-size="12">generated_at</text><line x1="1410" y1="812" x2="1400" y2="831"/>

    <polygon points="1360,780 1410,810 1360,840 1310,810" fill="white"/><text x="1360" y="815" text-anchor="middle">SUPPORTS</text>
    <line x1="1315" y1="786" x2="1310" y2="810"/>
    <line x1="1410" y1="810" x2="1410" y2="810"/>
    <text x="1320" y="776" font-size="16">1</text>
    <text x="1400" y="802" font-size="16">N</text>

    <polygon points="940,980 1045,1035 940,1090 835,1035" fill="white"/><text x="940" y="1040" text-anchor="middle">RECEIVES</text>
    <line x1="230" y1="182" x2="875" y2="998"/>
    <text x="590" y="610" font-size="16">1</text>

    <rect x="1040" y="1080" width="180" height="52" fill="white"/><text x="1130" y="1112" text-anchor="middle">NOTIFICATION</text>
    <ellipse cx="1000" cy="1040" rx="56" ry="20" fill="white"/><text x="1000" y="1045" text-anchor="middle" font-size="12">notification_id</text><line x1="1055" y1="1080" x2="1030" y2="1058"/><line x1="960" y1="1052" x2="1040" y2="1052"/>
    <ellipse cx="1130" cy="1030" rx="48" ry="20" fill="white"/><text x="1130" y="1035" text-anchor="middle" font-size="12">message</text><line x1="1130" y1="1080" x2="1130" y2="1050"/>
    <ellipse cx="1260" cy="1040" rx="34" ry="20" fill="white"/><text x="1260" y="1045" text-anchor="middle" font-size="12">type</text><line x1="1220" y1="1080" x2="1238" y2="1058"/>
    <ellipse cx="1260" cy="1110" rx="40" ry="20" fill="white"/><text x="1260" y="1115" text-anchor="middle" font-size="12">is_read</text><line x1="1220" y1="1120" x2="1220" y2="1120"/>
    <ellipse cx="1130" cy="1175" rx="46" ry="20" fill="white"/><text x="1130" y="1180" text-anchor="middle" font-size="12">created_at</text><line x1="1130" y1="1132" x2="1130" y2="1155"/>
    <line x1="1045" y1="1035" x2="1040" y2="1105"/>
    <text x="1028" y="1075" font-size="16">N</text>

    <polygon points="1190,560 1295,615 1190,670 1085,615" fill="white"/><text x="1190" y="620" text-anchor="middle">HAS</text>
    <line x1="240" y1="182" x2="1110" y2="584"/>
    <line x1="1295" y1="615" x2="1440" y2="760"/>
    <text x="640" y="410" font-size="16">1</text>
    <text x="1370" y="720" font-size="16">N</text>

    <rect x="1450" y="1080" width="205" height="52" fill="white"/><text x="1552" y="1112" text-anchor="middle">FARM_ANALYTICS</text>
    <ellipse cx="1410" cy="1040" rx="50" ry="20" fill="white"/><text x="1410" y="1045" text-anchor="middle" font-size="12">analytics_id</text><line x1="1460" y1="1080" x2="1438" y2="1058"/><line x1="1372" y1="1052" x2="1448" y2="1052"/>
    <ellipse cx="1552" cy="1030" rx="44" ry="20" fill="white"/><text x="1552" y="1035" text-anchor="middle" font-size="12">yield_value</text><line x1="1552" y1="1080" x2="1552" y2="1050"/>
    <ellipse cx="1690" cy="1045" rx="54" ry="20" fill="white"/><text x="1690" y="1050" text-anchor="middle" font-size="12">farm_activity</text><line x1="1655" y1="1080" x2="1670" y2="1060"/>
    <ellipse cx="1690" cy="1115" rx="48" ry="20" fill="white"/><text x="1690" y="1120" text-anchor="middle" font-size="12">report_period</text><line x1="1655" y1="1120" x2="1642" y2="1120"/>
    <ellipse cx="1552" cy="1178" rx="46" ry="20" fill="white"/><text x="1552" y="1183" text-anchor="middle" font-size="12">created_at</text><line x1="1552" y1="1132" x2="1552" y2="1158"/>

    <polygon points="1290,1030 1370,1085 1290,1140 1210,1085" fill="white"/><text x="1290" y="1090" text-anchor="middle">HAS</text>
    <line x1="255" y1="182" x2="1230" y2="1045"/>
    <line x1="1370" y1="1085" x2="1450" y2="1105"/>
    <text x="735" y="575" font-size="16">1</text>
    <text x="1415" y="1080" font-size="16">N</text>

    <rect x="1780" y="1080" width="185" height="52" fill="white"/><text x="1872" y="1112" text-anchor="middle">USER_SESSION</text>
    <ellipse cx="1740" cy="1040" rx="46" ry="20" fill="white"/><text x="1740" y="1045" text-anchor="middle" font-size="12">session_id</text><line x1="1790" y1="1080" x2="1765" y2="1058"/><line x1="1703" y1="1052" x2="1777" y2="1052"/>
    <ellipse cx="1872" cy="1030" rx="54" ry="20" fill="white"/><text x="1872" y="1035" text-anchor="middle" font-size="12">session_token</text><line x1="1872" y1="1080" x2="1872" y2="1050"/>
    <ellipse cx="2005" cy="1045" rx="40" ry="20" fill="white"/><text x="2005" y="1050" text-anchor="middle" font-size="12">login_at</text><line x1="1965" y1="1080" x2="1984" y2="1061"/>
    <ellipse cx="2005" cy="1115" rx="42" ry="20" fill="white"/><text x="2005" y="1120" text-anchor="middle" font-size="12">expires_at</text><line x1="1965" y1="1120" x2="1963" y2="1120"/>
    <ellipse cx="1872" cy="1178" rx="36" ry="20" fill="white"/><text x="1872" y="1183" text-anchor="middle" font-size="12">status</text><line x1="1872" y1="1132" x2="1872" y2="1158"/>

    <polygon points="1670,980 1740,1035 1670,1090 1600,1035" fill="white"/><text x="1670" y="1040" text-anchor="middle">HAS</text>
    <line x1="260" y1="182" x2="1610" y2="995"/>
    <line x1="1740" y1="1035" x2="1780" y2="1105"/>
    <text x="835" y="540" font-size="16">1</text>
    <text x="1762" y="1068" font-size="16">N</text>

    <rect x="2070" y="1080" width="240" height="52" fill="white"/><text x="2190" y="1112" text-anchor="middle">LANGUAGE_PREFERENCE</text>
    <ellipse cx="2030" cy="1040" rx="56" ry="20" fill="white"/><text x="2030" y="1045" text-anchor="middle" font-size="12">preference_id</text><line x1="2080" y1="1080" x2="2055" y2="1058"/><line x1="1990" y1="1052" x2="2070" y2="1052"/>
    <ellipse cx="2190" cy="1030" rx="58" ry="20" fill="white"/><text x="2190" y="1035" text-anchor="middle" font-size="12">language_code</text><line x1="2190" y1="1080" x2="2190" y2="1050"/>
    <ellipse cx="2335" cy="1045" rx="58" ry="20" fill="white"/><text x="2335" y="1050" text-anchor="middle" font-size="12">language_name</text><line x1="2310" y1="1080" x2="2318" y2="1062"/>
    <ellipse cx="2190" cy="1178" rx="46" ry="20" fill="white"/><text x="2190" y="1183" text-anchor="middle" font-size="12">created_at</text><line x1="2190" y1="1132" x2="2190" y2="1158"/>

    <polygon points="1980,980 2050,1035 1980,1090 1910,1035" fill="white"/><text x="1980" y="1040" text-anchor="middle">USES</text>
    <line x1="265" y1="182" x2="1920" y2="995"/>
    <line x1="2050" y1="1035" x2="2070" y2="1105"/>
    <text x="900" y="520" font-size="16">1</text>
    <text x="2052" y="1068" font-size="16">N</text>

    <rect x="1820" y="180" width="190" height="52" fill="white"/><text x="1915" y="212" text-anchor="middle">ADMIN_USER</text>
    <ellipse cx="1780" cy="140" rx="42" ry="20" fill="white"/><text x="1780" y="145" text-anchor="middle" font-size="12">admin_id</text><line x1="1830" y1="180" x2="1804" y2="158"/><line x1="1745" y1="152" x2="1813" y2="152"/>
    <ellipse cx="1915" cy="130" rx="36" ry="20" fill="white"/><text x="1915" y="135" text-anchor="middle" font-size="12">name</text><line x1="1915" y1="180" x2="1915" y2="150"/>
    <ellipse cx="2045" cy="145" rx="42" ry="20" fill="white"/><text x="2045" y="150" text-anchor="middle" font-size="12">email</text><line x1="2010" y1="180" x2="2028" y2="162"/>
    <ellipse cx="2045" cy="215" rx="50" ry="20" fill="white"/><text x="2045" y="220" text-anchor="middle" font-size="12">password</text><line x1="2010" y1="225" x2="1996" y2="223"/>
    <ellipse cx="1915" cy="278" rx="32" ry="20" fill="white"/><text x="1915" y="283" text-anchor="middle" font-size="12">role</text><line x1="1915" y1="232" x2="1915" y2="258"/>
    <ellipse cx="1780" cy="278" rx="46" ry="20" fill="white"/><text x="1780" y="283" text-anchor="middle" font-size="12">created_at</text><line x1="1845" y1="232" x2="1802" y2="259"/>

    <polygon points="1690,270 1775,315 1690,360 1605,315" fill="white"/><text x="1690" y="320" text-anchor="middle">MANAGES</text>
    <line x1="1820" y1="206" x2="1760" y2="285"/>
    <line x1="1605" y1="315" x2="1050" y2="182"/>
    <text x="1780" y="255" font-size="16">1</text>
    <text x="1550" y="290" font-size="16">0..N</text>

    <polygon points="1560,200 1645,245 1560,290 1475,245" fill="white"/><text x="1560" y="250" text-anchor="middle">MANAGES</text>
    <line x1="1820" y1="200" x2="1645" y2="245"/>
    <line x1="1475" y1="245" x2="270" y2="170"/>
    <text x="1720" y="210" font-size="16">1</text>
    <text x="1380" y="225" font-size="16">0..N</text>

    <polygon points="1645,520 1730,565 1645,610 1560,565" fill="white"/><text x="1645" y="570" text-anchor="middle">MANAGES</text>
    <line x1="1880" y1="232" x2="1705" y2="528"/>
    <line x1="1560" y1="565" x2="530" y2="785"/>
    <text x="1785" y="410" font-size="16">1</text>
    <text x="1478" y="585" font-size="16">0..N</text>
  </g>
</svg>
